<svg   viewBox="0 0 30 32"> 
<path d="M16.219 14.826l4.928-4.923c0.156-0.177 0.252-0.412 0.252-0.668 0-0.559-0.453-1.013-1.013-1.013-0.257 0-0.492 0.096-0.67 0.253l0.001-0.001-4.927 4.874-4.959-4.955c-0.175-0.146-0.402-0.235-0.649-0.235-0.56 0-1.014 0.454-1.014 1.014 0 0.247 0.089 0.474 0.236 0.65l-0.001-0.002 4.948 5.006-4.847 4.782c-0.211 0.187-0.344 0.458-0.344 0.76 0 0.559 0.454 1.013 1.013 1.013 0.303 0 0.574-0.133 0.76-0.343l0.001-0.001 4.836-4.832 4.806 4.801c0.175 0.146 0.402 0.235 0.649 0.235 0.56 0 1.014-0.454 1.014-1.014 0-0.247-0.089-0.474-0.236-0.65l0.001 0.002-4.785-4.751z"></path>
</svg>